<?xml version="1.0" encoding="UTF-8"?>
<svg id="Layer_2" xmlns="http://www.w3.org/2000/svg" viewBox="0 0 100 100">
  <defs>
    <style>
      .cls-1 {
        stroke: #fbb040;
      }

      .cls-1, .cls-2 {
        fill: none;
        stroke-miterlimit: 10;
        stroke-width: 2px;
      }

      .cls-2 {
        stroke: #fff;
      }

      .cls-3 {
        fill: #667cbd;
      }
    </style>
  </defs>
  <g id="Tile_Background">
    <rect id="Background_Color" class="cls-3" width="100" height="100"/>
    <g id="Clipboard">
      <g>
        <path class="cls-1" d="M31.35,7.57h7.54c1.1,0,1.99.89,1.99,1.99v33.1c0,1.1-.89,1.99-1.99,1.99H10.97c-1.1,0-1.99-.89-1.99-1.99V9.56c0-1.1.89-1.99,1.99-1.99h7.62"/>
        <path class="cls-1" d="M31.34,11.17h3.99c1.1,0,1.99.89,1.99,1.99v25.82c0,1.1-.89,1.99-1.99,1.99H14.54c-1.1,0-1.99-.89-1.99-1.99V13.16c0-1.1.89-1.99,1.99-1.99h4.25"/>
        <path class="cls-1" d="M18.71,11.3c-.11-.25-.17-.52-.17-.81v-2.51c0-1.1.89-1.99,1.99-1.99h8.82c1.1,0,1.99.89,1.99,1.99v2.51c0,1.1-.89,1.99-1.99,1.99h-8.82c-.81,0-1.5-.48-1.82-1.18"/>
        <line class="cls-1" x1="18.08" y1="21.49" x2="31.79" y2="21.49"/>
        <line class="cls-1" x1="18.08" y1="26.39" x2="31.79" y2="26.39"/>
        <line class="cls-1" x1="18.08" y1="31.9" x2="31.79" y2="31.9"/>
      </g>
    </g>
    <g id="Clipboard-2" data-name="Clipboard">
      <g>
        <path class="cls-2" d="M81.45,7.57h7.54c1.1,0,1.99.89,1.99,1.99v33.1c0,1.1-.89,1.99-1.99,1.99h-27.92c-1.1,0-1.99-.89-1.99-1.99V9.56c0-1.1.89-1.99,1.99-1.99h7.62"/>
        <path class="cls-2" d="M81.44,11.17h3.99c1.1,0,1.99.89,1.99,1.99v25.82c0,1.1-.89,1.99-1.99,1.99h-20.79c-1.1,0-1.99-.89-1.99-1.99V13.16c0-1.1.89-1.99,1.99-1.99h4.25"/>
        <path class="cls-2" d="M68.8,11.3c-.11-.25-.17-.52-.17-.81v-2.51c0-1.1.89-1.99,1.99-1.99h8.82c1.1,0,1.99.89,1.99,1.99v2.51c0,1.1-.89,1.99-1.99,1.99h-8.82c-.81,0-1.5-.48-1.82-1.18"/>
        <line class="cls-2" x1="68.18" y1="21.49" x2="81.89" y2="21.49"/>
        <line class="cls-2" x1="68.18" y1="26.39" x2="81.89" y2="26.39"/>
        <line class="cls-2" x1="68.18" y1="31.9" x2="81.89" y2="31.9"/>
      </g>
    </g>
    <g id="Clipboard-3" data-name="Clipboard">
      <g>
        <path class="cls-2" d="M31.35,56.85h7.54c1.1,0,1.99.89,1.99,1.99v33.1c0,1.1-.89,1.99-1.99,1.99H10.97c-1.1,0-1.99-.89-1.99-1.99v-33.1c0-1.1.89-1.99,1.99-1.99h7.62"/>
        <path class="cls-2" d="M31.34,60.45h3.99c1.1,0,1.99.89,1.99,1.99v25.82c0,1.1-.89,1.99-1.99,1.99H14.54c-1.1,0-1.99-.89-1.99-1.99v-25.82c0-1.1.89-1.99,1.99-1.99h4.25"/>
        <path class="cls-2" d="M18.71,60.58c-.11-.25-.17-.52-.17-.81v-2.51c0-1.1.89-1.99,1.99-1.99h8.82c1.1,0,1.99.89,1.99,1.99v2.51c0,1.1-.89,1.99-1.99,1.99h-8.82c-.81,0-1.5-.48-1.82-1.18"/>
        <line class="cls-2" x1="18.08" y1="70.77" x2="31.79" y2="70.77"/>
        <line class="cls-2" x1="18.08" y1="75.67" x2="31.79" y2="75.67"/>
        <line class="cls-2" x1="18.08" y1="81.18" x2="31.79" y2="81.18"/>
      </g>
    </g>
    <g id="Clipboard-4" data-name="Clipboard">
      <g>
        <path class="cls-1" d="M81.45,56.85h7.54c1.1,0,1.99.89,1.99,1.99v33.1c0,1.1-.89,1.99-1.99,1.99h-27.92c-1.1,0-1.99-.89-1.99-1.99v-33.1c0-1.1.89-1.99,1.99-1.99h7.62"/>
        <path class="cls-1" d="M81.44,60.45h3.99c1.1,0,1.99.89,1.99,1.99v25.82c0,1.1-.89,1.99-1.99,1.99h-20.79c-1.1,0-1.99-.89-1.99-1.99v-25.82c0-1.1.89-1.99,1.99-1.99h4.25"/>
        <path class="cls-1" d="M68.8,60.58c-.11-.25-.17-.52-.17-.81v-2.51c0-1.1.89-1.99,1.99-1.99h8.82c1.1,0,1.99.89,1.99,1.99v2.51c0,1.1-.89,1.99-1.99,1.99h-8.82c-.81,0-1.5-.48-1.82-1.18"/>
        <line class="cls-1" x1="68.18" y1="70.77" x2="81.89" y2="70.77"/>
        <line class="cls-1" x1="68.18" y1="75.67" x2="81.89" y2="75.67"/>
        <line class="cls-1" x1="68.18" y1="81.18" x2="81.89" y2="81.18"/>
      </g>
    </g>
  </g>
</svg>